<svg width="27" height="27" viewBox="0 0 27 27" fill="none" xmlns="http://www.w3.org/2000/svg">
<path d="M9.33224 22.6667H2.66645C2.22448 22.6667 1.80061 22.4911 1.48809 22.1785C1.17557 21.866 1 21.442 1 21V2.66667C1 2.22464 1.17557 1.80072 1.48809 1.48816C1.80061 1.17559 2.22448 1 2.66645 1H19.3309C19.7729 1 20.1968 1.17559 20.5093 1.48816C20.8218 1.80072 20.9974 2.22464 20.9974 2.66667V10.1667M9.33224 6H15.998M5.99935 11H15.998M5.99935 16H14.3316M25.309 16.6889L16.8357 25.1667L12.6696 26L13.5028 21.8333L21.9806 13.3556C22.4212 12.9149 23.0189 12.6673 23.642 12.6673C24.2652 12.6673 24.8628 12.9149 25.3035 13.3556L25.3135 13.3644C25.5315 13.583 25.7044 13.8423 25.8222 14.1277C25.94 14.4131 26.0004 14.7189 26 15.0276C25.9996 15.3363 25.9383 15.6419 25.8198 15.927C25.7012 16.212 25.5277 16.4709 25.309 16.6889Z" stroke="white" stroke-width="1.5" stroke-linecap="round" stroke-linejoin="round"/>
</svg>
