<svg width="26" height="27" viewBox="0 0 26 27" fill="none" xmlns="http://www.w3.org/2000/svg">
<path d="M0.869141 13.755C0.869141 10.8938 0.869141 9.46375 1.48146 8.27875C2.09142 7.0925 3.2089 6.3575 5.44269 4.885L7.79776 3.33375C10.1587 1.7775 11.3398 1 12.6445 1C13.9492 1 15.1291 1.7775 17.4912 3.33375L19.8463 4.885C22.0801 6.3575 23.1976 7.0925 23.8087 8.27875C24.4199 9.465 24.4199 10.8937 24.4199 13.7538V15.6563C24.4199 20.5313 24.4199 22.97 23.0398 24.485C21.6597 26 19.4401 26 14.9996 26H10.2894C5.84894 26 3.62811 26 2.24921 24.485C0.870318 22.97 0.869141 20.5325 0.869141 15.6563V13.755Z" stroke="#D2815E" stroke-width="1.5"/>
<path d="M12.6465 17.25V21" stroke="#D2815E" stroke-width="1.5" stroke-linecap="round"/>
</svg>
