<svg width="27" height="28" viewBox="0 0 27 28" fill="none" xmlns="http://www.w3.org/2000/svg">
<path d="M12.4659 25.7008H10.7489C6.35859 25.7008 4.16404 25.7008 2.79979 24.2253C1.43555 22.7498 1.43555 20.3747 1.43555 15.6258C1.43555 10.8769 1.43555 8.50178 2.79979 7.02628C4.16404 5.55078 6.35859 5.55078 10.7489 5.55078H15.4062C19.7965 5.55078 21.9923 5.55078 23.3566 7.02628C24.4061 8.16118 24.6473 9.82908 24.7037 12.7008" stroke="white" stroke-width="1.5" stroke-linecap="round" stroke-linejoin="round"/>
<path d="M23.4977 24.4299L25.9262 27M18.5784 5.55L18.4559 5.147C17.8497 3.145 17.5472 2.144 16.8259 1.572C16.1034 1 15.1457 1 13.2267 1H12.9046C10.9881 1 10.0292 1 9.30787 1.572C8.58534 2.144 8.28285 3.145 7.67666 5.147L7.55664 5.55M24.7665 21.1838C24.7761 20.5753 24.6716 19.9708 24.4589 19.4056C24.2462 18.8404 23.9296 18.3258 23.5276 17.8919C23.1256 17.4579 22.6463 17.1132 22.1175 16.8779C21.5887 16.6427 21.0211 16.5215 20.4478 16.5215C19.8745 16.5215 19.3068 16.6427 18.7781 16.8779C18.2493 17.1132 17.77 17.4579 17.368 17.8919C16.966 18.3258 16.6494 18.8404 16.4367 19.4056C16.224 19.9708 16.1195 20.5753 16.1291 21.1838C16.1482 22.3863 16.6116 23.5327 17.4194 24.3759C18.2272 25.2192 19.3148 25.6917 20.4478 25.6917C21.5807 25.6917 22.6683 25.2192 23.4762 24.3759C24.284 23.5327 24.7474 22.3863 24.7665 21.1838Z" stroke="white" stroke-width="1.5" stroke-linecap="round" stroke-linejoin="round"/>
</svg>
