<svg width="24" height="22" viewBox="0 0 24 22" fill="none" xmlns="http://www.w3.org/2000/svg">
<path id="Vector" d="M17.75 15.5L22.25 11M22.25 11L17.75 6.5M22.25 11H6.5M13.25 15.5V16.625C13.25 17.5201 12.8944 18.3786 12.2615 19.0115C11.6286 19.6444 10.7701 20 9.875 20H5.375C4.47989 20 3.62145 19.6444 2.98851 19.0115C2.35558 18.3786 2 17.5201 2 16.625V5.375C2 4.47989 2.35558 3.62145 2.98851 2.98851C3.62145 2.35558 4.47989 2 5.375 2H9.875C10.7701 2 11.6286 2.35558 12.2615 2.98851C12.8944 3.62145 13.25 4.47989 13.25 5.375V6.5" stroke="#FADB67" stroke-width="2.5" stroke-linecap="round" stroke-linejoin="round"/>
</svg>
