<svg width="23" height="26" viewBox="0 0 23 26" fill="none" xmlns="http://www.w3.org/2000/svg">
<path fill-rule="evenodd" clip-rule="evenodd" d="M2.45125 9.57998C2.45125 7.03921 3.38398 4.60251 5.04426 2.80591C6.70454 1.00932 8.95636 0 11.3043 0C13.6523 0 15.9042 1.00932 17.5644 2.80591C19.2247 4.60251 20.1574 7.03921 20.1574 9.57998V14.7313L22.4618 19.7183C22.5679 19.9479 22.6179 20.2029 22.6073 20.4593C22.5966 20.7157 22.5256 20.9649 22.4009 21.1832C22.2762 21.4015 22.102 21.5817 21.8948 21.7066C21.6877 21.8316 21.4545 21.8971 21.2173 21.8971H16.2039C15.9226 23.0717 15.2888 24.1119 14.402 24.8545C13.5152 25.5971 12.4257 26 11.3043 26C10.183 26 9.09348 25.5971 8.2067 24.8545C7.31991 24.1119 6.68611 23.0717 6.40479 21.8971H1.39141C1.15424 21.8971 0.921006 21.8316 0.71385 21.7066C0.506695 21.5817 0.332498 21.4015 0.207805 21.1832C0.0831117 20.9649 0.0120626 20.7157 0.00140548 20.4593C-0.00925166 20.2029 0.0408371 19.9479 0.146914 19.7183L2.45125 14.7313V9.57998ZM9.11384 21.8971C9.33585 22.3132 9.65516 22.6587 10.0397 22.8989C10.4242 23.1391 10.8604 23.2656 11.3043 23.2656C11.7483 23.2656 12.1845 23.1391 12.569 22.8989C12.9535 22.6587 13.2728 22.3132 13.4949 21.8971H9.11384ZM11.3043 2.73714C9.62721 2.73714 8.01877 3.45808 6.83286 4.74136C5.64694 6.02464 4.98071 7.76515 4.98071 9.57998V14.7313C4.98068 15.156 4.88932 15.5749 4.71385 15.9548L3.23412 19.16H19.3758L17.8961 15.9548C17.7202 15.575 17.6284 15.1561 17.628 14.7313V9.57998C17.628 7.76515 16.9618 6.02464 15.7758 4.74136C14.5899 3.45808 12.9815 2.73714 11.3043 2.73714Z" fill="white"/>
</svg>
