<svg width="28" height="35" viewBox="0 0 28 35" fill="none" xmlns="http://www.w3.org/2000/svg">
<path d="M4.52981 25.0559C1.92098 27.4303 0.303437 30.7012 0 34.2157H4.52981L5.68945 29.6248L4.52981 25.0559ZM11.2506 34.2157H16.7494L18.7913 28.0631L16.7494 21.654C14.934 21.295 13.066 21.295 11.2506 21.654L9.75858 28.0631L11.2506 34.2157ZM23.4702 25.0559L21.8364 29.6248L23.4702 34.2157H28C27.6966 30.7012 26.079 27.4303 23.4702 25.0559Z" fill="#FF9C38"/>
<path d="M11.2501 21.6533C10.5145 21.8 9.80165 22.0016 9.11165 22.2582L8.04243 28.2165L9.11165 34.2151H11.2501V21.6533ZM16.7489 21.6533C17.4853 21.8 18.1981 22.0016 18.8873 22.2582L19.9944 28.2165L18.8873 34.2041H16.7489V21.6533ZM4.5293 25.0553C5.18928 24.452 5.90534 23.9131 6.66773 23.4459L7.78704 28.7798L6.66773 34.2029H4.5293V25.0553ZM21.3313 23.4472C22.097 23.9164 22.8098 24.4524 23.4697 25.0553V34.2029H21.3313L20.7105 29.2148L21.3313 23.4472Z" fill="#FF6723"/>
<path d="M20.6507 7.63142C20.2756 6.96912 20.9379 6.50966 20.2878 6.27994C19.5688 6.03908 18.958 5.55171 18.5636 4.90401C18.0382 4.0242 17.0887 4.71216 16.0134 4.71216C15.6016 4.71216 15.2008 3.52686 14.8525 3.6796C14.6124 3.78695 14.3524 3.84244 14.0894 3.84244C13.8264 3.84244 13.5664 3.78695 13.3263 3.6796C12.9646 3.52686 12.576 4.71216 12.1642 4.71216C11.1011 4.71216 10.1651 3.99854 9.63965 4.85269C9.23386 5.51688 8.61157 6.02093 7.87758 6.27994C7.18962 6.52188 7.8116 8.79106 7.8116 8.79106C7.8116 8.79106 5.8027 9.96415 6.4149 10.8684C6.62752 11.2008 6.75216 11.5955 6.75216 11.9914V17.3069C6.75216 18.4922 7.49022 19.537 8.58999 19.9317L10.952 20.7614V11.3034C11.1412 11.1155 11.3014 10.9006 11.4274 10.6656C11.6388 10.2953 11.7646 9.88716 11.8013 9.49247C12.2085 9.5449 12.6221 9.50942 13.0144 9.38843C13.4067 9.26743 13.7685 9.06373 14.0754 8.79106C14.6008 9.23708 15.2643 9.51813 16.0012 9.51813C16.1258 9.51813 16.2382 9.50591 16.3507 9.49247C16.4231 10.174 16.7227 10.8114 17.2011 11.3022V20.7736L19.5632 19.9451C20.1036 19.7514 20.5706 19.3948 20.8998 18.9244C21.229 18.4541 21.4041 17.8932 21.401 17.3191V12.0036C21.401 11.6089 20.3037 11.213 20.5285 10.8818C21.1786 9.93849 21.2373 8.6762 20.6507 7.63142Z" fill="#FFF9BA"/>
<path d="M13.9945 25.3555C12.6455 25.3555 11.5555 24.3682 11.5555 23.1462V21.6896H16.4433V23.1462C16.4323 24.3584 15.3435 25.3555 13.9945 25.3555ZM10.3335 14.6511C10.3335 15.2183 10.1082 15.7622 9.70717 16.1632C9.30614 16.5643 8.76222 16.7896 8.19507 16.7896C7.62792 16.7896 7.08401 16.5643 6.68297 16.1632C6.28194 15.7622 6.05664 15.2183 6.05664 14.6511C6.05664 14.084 6.28194 13.5401 6.68297 13.139C7.08401 12.738 7.62792 12.5127 8.19507 12.5127C8.76222 12.5127 9.30614 12.738 9.70717 13.139C10.1082 13.5401 10.3335 14.084 10.3335 14.6511ZM21.9421 14.6511C21.9421 15.2183 21.7168 15.7622 21.3158 16.1632C20.9148 16.5643 20.3708 16.7896 19.8037 16.7896C19.2365 16.7896 18.6926 16.5643 18.2916 16.1632C17.8906 15.7622 17.6653 15.2183 17.6653 14.6511C17.6653 14.084 17.8906 13.5401 18.2916 13.139C18.6926 12.738 19.2365 12.5127 19.8037 12.5127C20.3708 12.5127 20.9148 12.738 21.3158 13.139C21.7168 13.5401 21.9421 14.084 21.9421 14.6511Z" fill="#E4B29A"/>
<path d="M15.4167 4.8877H12.5598C9.35338 4.8877 6.94367 7.65421 7.31759 11.0928L7.79905 18.7056C8.13631 21.2986 10.2698 23.2171 12.7895 23.2171H15.2249C17.7434 23.2171 19.8769 21.2864 20.2154 18.7068L20.6736 11.094C21.0952 7.81429 18.6244 4.8877 15.4167 4.8877Z" fill="#EEBFAA"/>
<path d="M9.12442 14.2721C9.21974 13.866 9.45228 13.5051 9.78279 13.2506C10.1133 12.996 10.5215 12.8632 10.9385 12.8747C11.3556 12.8862 11.7559 13.0412 12.0719 13.3136C12.3878 13.586 12.6002 13.9591 12.673 14.3699C12.7096 14.5532 12.5508 14.7242 12.3712 14.7242H9.4739C9.41884 14.7239 9.36458 14.711 9.31523 14.6866C9.26588 14.6622 9.22274 14.6268 9.18906 14.5833C9.15539 14.5397 9.13207 14.4891 9.12087 14.4352C9.10967 14.3812 9.11088 14.3255 9.12442 14.2721ZM18.8757 14.2721C18.78 13.8763 18.5545 13.524 18.235 13.2715C17.9156 13.019 17.5208 12.8808 17.1136 12.8791C16.2338 12.8791 15.4969 13.5145 15.3283 14.3699C15.2917 14.5532 15.4481 14.7242 15.6289 14.7242H18.5262C18.7559 14.7242 18.9368 14.5043 18.8757 14.2721Z" fill="white"/>
<path d="M10.004 14.4065C10.004 13.7588 10.5233 13.2334 11.1636 13.2334C11.8027 13.2334 12.322 13.7588 12.322 14.4187C12.322 14.5165 12.3098 14.6264 12.2976 14.7242H10.0529C10.0192 14.6217 10.0026 14.5144 10.004 14.4065ZM18.0078 14.4065C18.0078 13.7588 17.4885 13.2334 16.8482 13.2334C16.5363 13.234 16.2373 13.3575 16.0159 13.5771C15.7945 13.7967 15.6685 14.0947 15.6653 14.4065C15.6653 14.5165 15.6898 14.6264 15.7142 14.7242H17.9589C17.9956 14.6142 18.0078 14.5165 18.0078 14.4065Z" fill="#7D4533"/>
<path d="M11.1647 13.7344C11.5264 13.7344 11.8283 14.0399 11.8283 14.4065C11.8283 14.5164 11.7916 14.6142 11.744 14.7242H10.5733C10.5253 14.6251 10.5003 14.5165 10.5 14.4065C10.5 14.0399 10.803 13.7344 11.1647 13.7344ZM16.8493 13.7344C16.6725 13.7366 16.5038 13.8084 16.3796 13.9342C16.2554 14.06 16.1858 14.2297 16.1858 14.4065C16.1858 14.5164 16.2102 14.6142 16.2701 14.7242H17.4407C17.4887 14.6251 17.5138 14.5165 17.5141 14.4065C17.5141 14.0399 17.211 13.7344 16.8493 13.7344Z" fill="black"/>
<path d="M10.9699 13.9421C10.9699 14.057 10.8795 14.1498 10.7658 14.1498C10.7112 14.1492 10.659 14.127 10.6205 14.0881C10.5821 14.0493 10.5605 13.9968 10.5605 13.9421C10.5605 13.8272 10.6522 13.7344 10.7658 13.7344C10.8795 13.7344 10.9699 13.8272 10.9699 13.9421ZM16.6923 13.9421C16.6923 13.9968 16.6708 14.0493 16.6324 14.0881C16.5939 14.127 16.5417 14.1492 16.4871 14.1498C16.4324 14.1492 16.3802 14.127 16.3417 14.0881C16.3033 14.0493 16.2818 13.9968 16.2818 13.9421C16.2818 13.8272 16.3734 13.7344 16.4871 13.7344C16.5417 13.735 16.5939 13.7572 16.6324 13.7961C16.6708 13.835 16.6923 13.8874 16.6923 13.9421Z" fill="white"/>
<path d="M13.4982 14.0944L12.8078 16.2304C12.6722 16.6691 13.0058 17.1078 13.4872 17.1078H14.5112C14.9927 17.1078 15.3263 16.6679 15.1906 16.2304L14.499 14.0944C14.3389 13.6313 13.6461 13.6313 13.4982 14.0944Z" fill="#D19479"/>
<path d="M14.0023 18.6681C13.357 18.6702 12.7219 18.5074 12.1571 18.1952C11.9799 18.0974 11.7783 18.3076 11.8968 18.4933C12.3465 19.2143 13.1274 19.6982 14.0023 19.6982C14.8894 19.6982 15.6703 19.2131 16.1077 18.4933C16.214 18.3076 16.0246 18.0962 15.8474 18.1952C15.2826 18.507 14.6475 18.6693 14.0023 18.6668" fill="#990838"/>
<path d="M11.2781 1.22168H16.7354C19.2783 1.22168 21.3324 3.45054 21.3324 6.18162V9.46991H21.633C22.4859 9.46991 23.1776 10.1542 23.1653 10.9851C23.1653 11.8161 22.4859 12.5004 21.633 12.5004H6.36828C5.52757 12.5004 4.83594 11.8283 4.83594 10.9851C4.83594 10.1542 5.51535 9.46991 6.36828 9.46991H6.66888V6.18162C6.66888 3.43709 8.73399 1.22168 11.2781 1.22168ZM6.66888 23.4467C7.43871 22.975 8.2562 22.5754 9.1128 22.2577V34.2146H6.66888V23.4467ZM18.8885 22.2577C19.7463 22.5771 20.5609 22.9734 21.3324 23.4467V34.2146H18.8885V22.2577Z" fill="#FFF478"/>
<path d="M15.1632 0H12.85C11.4582 0 10.334 1.0851 10.334 2.42559V9.47019H17.6657V2.42559C17.678 1.0851 16.5538 0 15.1632 0Z" fill="#FCD53F"/>
</svg>
